<?xml version="1.0" encoding="UTF-8" standalone="no"?>
<!-- Generator: Adobe Illustrator 27.5.0, SVG Export Plug-In . SVG Version: 6.00 Build 0)  -->

<svg
   version="1.1"
   x="0px"
   y="0px"
   viewBox="0 0 311199.97 348457.84"
   xml:space="preserve"
   id="svg72"
   width="311199.97"
   height="348457.84"
   xmlns="http://www.w3.org/2000/svg"
   xmlns:svg="http://www.w3.org/2000/svg"><defs
   id="defs72" />


<g
   id="Layer_7"
   transform="translate(-247419.27,-75372.242)">
	<g
   id="g45">
		<linearGradient
   id="SVGID_1_"
   gradientUnits="userSpaceOnUse"
   x1="389.15369"
   y1="141.3466"
   x2="753.91803"
   y2="434.33029">
			<stop
   offset="0"
   style="stop-color:#FED7AB"
   id="stop20" />
			<stop
   offset="1"
   style="stop-color:#FFF5CF"
   id="stop21" />
		</linearGradient>
		
		<g
   id="g44"
   transform="translate(-49.725929,125.77259)">
			
			
			
			<path
   id="polygon25"
   style="fill:#ad2f20"
   d="M 748,163.703 V 404.015 L 379,399 359,384.5 741,159 Z" />
			<path
   id="polygon26"
   style="fill:#ed6f29"
   d="M 741,395 359,384.5 V 159 h 382 z" />
			<path
   id="polygon27"
   style="fill:#ad2f20"
   d="M 741,210.74 359,206.96 V 205 h 382 z" />
			<path
   id="polygon28"
   style="fill:#ad2f20"
   d="M 741,338.78 359,335 v -2 h 382 z" />
			<path
   id="polygon29"
   style="opacity:0.592267;fill:#ad2f20"
   d="m 741,276 -382,3.78 V 274 h 382 z" />
			<path
   id="polygon30"
   style="fill:#e69a69"
   d="m 741,210.74 -382,-3.78 v -0.237 l 382,2.459 z" />
			<path
   id="polygon31"
   style="opacity:0.592267;fill:#e69a69"
   d="m 741,338.74 -382,-3.78 v -0.237 l 382,2.459 z" />
			<path
   id="polygon32"
   style="fill:#e69a69"
   d="m 359,279.74 382,-3.78 v -0.237 l -382,2.459 z" />
			<path
   style="fill:none;stroke:#fed7ab;stroke-width:3;stroke-miterlimit:10"
   d="m 421,172.5 h 269 c 0,0 -5.347,32.698 23.827,37.353 l 0.251,133.68 c 0,0 -33.473,-2.989 -26.338,31.46 l -282.593,-8.477 c 0,0 5.354,-31.754 -26.646,-28.96 V 207.87 c -10e-4,0 35.27,-0.917 42.499,-35.37 z"
   id="path32" />
			
			<path
   id="polygon41"
   style="opacity:0.31;fill:#ffebc6"
   d="M 741,296.77 359,172.72 V 159 h 382 z" />
			<g
   id="g42">
				<path
   id="circle41"
   style="fill:#fff5cf"
   d="m 394.995,180.586 a 9.9180002,9.9180002 0 0 1 -9.918,9.918 9.9180002,9.9180002 0 0 1 -9.918,-9.918 9.9180002,9.9180002 0 0 1 9.918,-9.918 9.9180002,9.9180002 0 0 1 9.918,9.918 z" />
				<path
   style="fill:#ad2f20"
   d="m 376.517,183.137 c 0,-5.478 4.441,-9.919 9.919,-9.919 3.324,0 6.259,1.641 8.059,4.152 -1.303,-3.958 -5.023,-6.817 -9.417,-6.817 -5.478,0 -9.919,4.441 -9.919,9.919 0,2.154 0.66,4.224 1.826,5.85 -0.322,-0.977 -0.468,-2.101 -0.468,-3.185 z"
   id="path41" />
			</g>
			<g
   id="g43">
				<path
   id="circle42"
   style="fill:#fff5cf"
   d="m 728.99503,180.586 a 9.9180002,9.9180002 0 0 1 -9.918,9.918 9.9180002,9.9180002 0 0 1 -9.918,-9.918 9.9180002,9.9180002 0 0 1 9.918,-9.918 9.9180002,9.9180002 0 0 1 9.918,9.918 z" />
				<path
   style="fill:#ad2f20"
   d="m 710.517,183.137 c 0,-5.478 4.441,-9.919 9.919,-9.919 3.324,0 6.259,1.641 8.059,4.152 -1.303,-3.958 -5.023,-6.817 -9.417,-6.817 -5.478,0 -9.919,4.441 -9.919,9.919 0,2.154 0.66,4.224 1.826,5.85 -0.322,-0.977 -0.468,-2.101 -0.468,-3.185 z"
   id="path42" />
			</g>
		<path
   style="opacity:1;fill:none;stroke:#471c07;stroke-width:10.185;stroke-linecap:round;stroke-linejoin:round;stroke-dasharray:none;stroke-opacity:1"
   d="M 389.83226,181.14771 533.45604,-26.465088 719.9835,175.06395"
   id="path72" /></g>
	</g>
	
</g>
</svg>
