<?xml version="1.0" encoding="UTF-8" standalone="no"?>
<!-- Created with Inkscape (http://www.inkscape.org/) -->

<svg
   width="1920"
   height="415"
   viewBox="0 0 507.99999 109.80208"
   version="1.1"
   id="svg1"
   sodipodi:docname="toldo.svg"
   inkscape:version="1.3.2 (1:1.3.2+202404261509+091e20ef0f)"
   xmlns:inkscape="http://www.inkscape.org/namespaces/inkscape"
   xmlns:sodipodi="http://sodipodi.sourceforge.net/DTD/sodipodi-0.dtd"
   xmlns="http://www.w3.org/2000/svg"
   xmlns:svg="http://www.w3.org/2000/svg">
  <sodipodi:namedview
     id="namedview1"
     pagecolor="#ffffff"
     bordercolor="#000000"
     borderopacity="0.25"
     inkscape:showpageshadow="2"
     inkscape:pageopacity="0.0"
     inkscape:pagecheckerboard="0"
     inkscape:deskcolor="#d1d1d1"
     inkscape:zoom="0.21223958"
     inkscape:cx="963.53375"
     inkscape:cy="789.20246"
     inkscape:window-width="1615"
     inkscape:window-height="1020"
     inkscape:window-x="65"
     inkscape:window-y="30"
     inkscape:window-maximized="1"
     inkscape:current-layer="g45" />
  <defs
     id="defs1" />
  <g
     id="layer1"
     transform="matrix(1.0020476,0,0,0.99999042,-5.2540763e-4,5.2494527e-4)">
    <g
       id="g45"
       transform="matrix(1.0433074,0,0,0.9998037,0.23306319,0.49990185)">
      <g
         id="g23">
        <path
           id="rect1"
           style="fill:#ff8286;fill-opacity:1;stroke:#c43636;stroke-width:1;stroke-dasharray:none;stroke-opacity:1"
           d="M 0.27661889,0 H 22.363569 v 99.633844 c 3e-6,4.967696 -4.867751,8.994816 -11.043475,8.994816 -6.1757251,0 -11.04347874,-4.02712 -11.04347511,-8.994816 z" />
        <path
           id="rect1-5"
           style="fill:#ffd5d5;fill-opacity:1;stroke:#c43636;stroke-width:1;stroke-dasharray:none;stroke-opacity:1"
           d="m 22.363576,0 h 22.086949 v 99.633856 c 4e-6,4.967704 -4.86775,8.994824 -11.043474,8.994824 -6.175725,0 -11.043479,-4.02712 -11.043475,-8.994824 z" />
        <path
           id="rect1-2"
           style="fill:#ff8286;fill-opacity:1;stroke:#c43636;stroke-width:1;stroke-dasharray:none;stroke-opacity:1"
           d="m 44.450534,0 h 22.086951 v 99.633844 c 1.2e-5,4.967696 -4.867746,8.994816 -11.043473,8.994816 -6.175732,0 -11.043482,-4.02712 -11.043478,-8.994816 z" />
        <path
           id="rect1-5-9"
           style="fill:#ffd5d5;fill-opacity:1;stroke:#c43636;stroke-width:1;stroke-dasharray:none;stroke-opacity:1"
           d="m 66.537497,0 h 22.086944 v 99.633856 c 1.2e-5,4.967704 -4.867745,8.994824 -11.043472,8.994824 -6.175727,0 -11.043472,-4.02712 -11.043472,-8.994824 z" />
        <path
           id="rect1-0"
           style="fill:#ff8286;fill-opacity:1;stroke:#c43636;stroke-width:1;stroke-dasharray:none;stroke-opacity:1"
           d="M 88.624441,0 H 110.7114 v 99.633844 c 0,4.967696 -4.86776,8.994816 -11.043486,8.994816 -6.175715,0 -11.043473,-4.02712 -11.043473,-8.994816 z" />
        <path
           id="rect1-5-93"
           style="fill:#ffd5d5;fill-opacity:1;stroke:#c43636;stroke-width:1;stroke-dasharray:none;stroke-opacity:1"
           d="m 110.7114,0 h 22.08695 v 99.633856 c 0,4.967704 -4.86776,8.994824 -11.04347,8.994824 -6.17572,0 -11.04348,-4.02712 -11.04348,-8.994824 z" />
        <path
           id="rect1-26"
           style="fill:#ff8286;fill-opacity:1;stroke:#c43636;stroke-width:1;stroke-dasharray:none;stroke-opacity:1"
           d="m 132.79835,0 h 22.08696 v 99.633844 c 0,4.967696 -4.86776,8.994816 -11.04348,8.994816 -6.17572,0 -11.04348,-4.02712 -11.04348,-8.994816 z" />
        <path
           id="rect1-5-1"
           style="fill:#ff8286;fill-opacity:1;stroke:#c43636;stroke-width:1;stroke-dasharray:none;stroke-opacity:1"
           d="m 176.97227,0 h 22.08695 v 99.633856 c 0,4.967704 -4.86775,8.994824 -11.04347,8.994824 -6.17573,0 -11.04349,-4.02712 -11.04348,-8.994824 z" />
        <path
           id="rect1-20"
           style="fill:#ffd5d5;fill-opacity:1;stroke:#c43636;stroke-width:1;stroke-dasharray:none;stroke-opacity:1"
           d="m 154.88531,0 h 22.08695 v 99.633844 c 0,4.967696 -4.86775,8.994816 -11.04347,8.994816 -6.17573,0 -11.04348,-4.02712 -11.04348,-8.994816 z" />
        <path
           id="rect1-5-2"
           style="fill:#ffd5d5;fill-opacity:1;stroke:#c43636;stroke-width:1;stroke-dasharray:none;stroke-opacity:1"
           d="m 199.05923,0 h 22.08695 v 99.633856 c 0,4.967704 -4.86775,8.994824 -11.04348,8.994824 -6.17572,0 -11.04348,-4.02712 -11.04347,-8.994824 z" />
        <path
           id="rect1-9"
           style="fill:#ff8286;fill-opacity:1;stroke:#c43636;stroke-width:1;stroke-dasharray:none;stroke-opacity:1"
           d="m 221.14618,0 h 22.08695 v 99.633856 c 0,4.967704 -4.86775,8.994824 -11.04347,8.994824 -6.17573,0 -11.04348,-4.02712 -11.04348,-8.994824 z" />
        <path
           id="rect1-5-22"
           style="fill:#ffd5d5;fill-opacity:1;stroke:#c43636;stroke-width:1;stroke-dasharray:none;stroke-opacity:1"
           d="m 243.23314,0 h 22.08695 v 99.633858 c 0,4.967702 -4.86775,8.994822 -11.04347,8.994822 -6.17573,0 -11.04349,-4.02712 -11.04348,-8.994822 z" />
        <path
           id="rect1-3"
           style="fill:#ff8286;fill-opacity:1;stroke:#c43636;stroke-width:1;stroke-dasharray:none;stroke-opacity:1"
           d="m 265.32009,0 h 22.08696 v 99.633856 c 0,4.967704 -4.86776,8.994824 -11.04348,8.994824 -6.17572,0 -11.04348,-4.02712 -11.04348,-8.994824 z" />
        <path
           id="rect1-5-6"
           style="fill:#ffd5d5;fill-opacity:1;stroke:#c43636;stroke-width:1;stroke-dasharray:none;stroke-opacity:1"
           d="M 287.40706,0 H 309.494 v 99.633858 c 0,4.967702 -4.86774,8.994822 -11.04347,8.994822 -6.17573,0 -11.04348,-4.02712 -11.04347,-8.994822 z" />
        <path
           id="rect1-31"
           style="fill:#ff8286;fill-opacity:1;stroke:#c43636;stroke-width:1;stroke-dasharray:none;stroke-opacity:1"
           d="m 309.494,0 h 22.08696 v 99.633856 c 0,4.967704 -4.86776,8.994824 -11.04347,8.994824 -6.17573,0 -11.04349,-4.02712 -11.04349,-8.994824 z" />
        <path
           id="rect1-5-94"
           style="fill:#ffd5d5;fill-opacity:1;stroke:#c43636;stroke-width:1;stroke-dasharray:none;stroke-opacity:1"
           d="m 331.58097,0 h 22.08695 v 99.633858 c 0,4.967702 -4.86775,8.994822 -11.04348,8.994822 -6.17572,0 -11.04348,-4.02712 -11.04347,-8.994822 z" />
        <path
           id="rect1-50"
           style="fill:#ff8286;fill-opacity:1;stroke:#c43636;stroke-width:1;stroke-dasharray:none;stroke-opacity:1"
           d="m 353.66792,0 h 22.08695 v 99.633856 c 0,4.967704 -4.86775,8.994824 -11.04347,8.994824 -6.17573,0 -11.04348,-4.02712 -11.04348,-8.994824 z" />
        <path
           id="rect1-5-3"
           style="fill:#ffd5d5;fill-opacity:1;stroke:#c43636;stroke-width:1;stroke-dasharray:none;stroke-opacity:1"
           d="m 375.75489,0 h 22.08694 v 99.633858 c 0,4.967702 -4.86775,8.994822 -11.04347,8.994822 -6.17573,0 -11.04349,-4.02712 -11.04347,-8.994822 z" />
        <path
           id="rect1-6"
           style="fill:#ff8286;fill-opacity:1;stroke:#c43636;stroke-width:1;stroke-dasharray:none;stroke-opacity:1"
           d="m 397.84183,0 h 22.08696 v 99.633842 c 0,4.967698 -4.86776,8.994818 -11.04348,8.994818 -6.17572,0 -11.04348,-4.02712 -11.04348,-8.994818 z" />
        <path
           id="rect1-5-32"
           style="fill:#ffd5d5;fill-opacity:1;stroke:#c43636;stroke-width:1;stroke-dasharray:none;stroke-opacity:1"
           d="m 419.9288,0 h 22.08694 v 99.633845 c 0,4.967695 -4.86774,8.994815 -11.04347,8.994815 -6.17573,0 -11.04348,-4.02711 -11.04347,-8.994815 z" />
        <path
           id="rect1-55"
           style="fill:#ff8286;fill-opacity:1;stroke:#c43636;stroke-width:1;stroke-dasharray:none;stroke-opacity:1"
           d="m 442.01574,0 h 22.08696 v 99.633842 c 0,4.967698 -4.86776,8.994818 -11.04347,8.994818 -6.17573,0 -11.04349,-4.02712 -11.04349,-8.994818 z" />
        <path
           id="rect1-69"
           style="fill:#ffd5d5;fill-opacity:1;stroke:#c43636;stroke-width:1;stroke-dasharray:none;stroke-opacity:1"
           d="m 464.1027,0 h 22.08696 v 99.633842 c 0,4.967698 -4.86776,8.994818 -11.04348,8.994818 -6.17572,0 -11.04348,-4.02712 -11.04348,-8.994818 z" />
      </g>
      <path
         id="path1-0"
         style="mix-blend-mode:multiply;fill:#fdd0ff;fill-opacity:1;stroke:none;stroke-width:1;stroke-linecap:round;stroke-linejoin:round;stroke-dasharray:none;stroke-opacity:1"
         d="m 0.27646891,93.136165 v 5.997318 c 0,4.967687 4.86806239,8.994797 11.04377009,8.994797 4.474519,0 8.233509,-2.128 9.980786,-5.18211 0.495579,-1.02717 0.785999,-2.13989 0.785999,-3.312459 -1e-6,0.302504 0.07219,0.588319 0.107487,0.883149 0.08549,-0.45407 0.168982,-0.909506 0.168982,-1.383377 -10e-6,4.967687 4.867545,8.994797 11.043253,8.994797 4.474512,0 8.233875,-2.128 9.981303,-5.18211 0.495578,-1.02717 0.785999,-2.13989 0.785998,-3.312459 0,0.302504 0.07219,0.588319 0.107487,0.883149 0.0855,-0.45407 0.168983,-0.909506 0.168982,-1.383377 0,4.967687 4.867536,8.994797 11.043254,8.994797 4.473733,0 8.232435,-2.12731 9.980269,-5.18056 0.49608,-1.02758 0.787034,-2.14087 0.787032,-3.314009 0,0.302504 0.07219,0.588319 0.107487,0.883149 0.0855,-0.45407 0.168984,-0.909506 0.168982,-1.383377 0,4.967687 4.867536,8.994797 11.043254,8.994797 4.473732,0 8.232435,-2.12731 9.980269,-5.18056 0.496079,-1.02758 0.787037,-2.14087 0.787032,-3.314009 0,0.302504 0.07219,0.588319 0.107487,0.883149 0.0855,-0.45407 0.168983,-0.909506 0.168982,-1.383377 0,4.967687 4.867544,8.994797 11.043253,8.994797 4.473733,0 8.232433,-2.12731 9.980273,-5.18056 0.49608,-1.02758 0.78703,-2.14087 0.78703,-3.314009 0,0.302504 0.0722,0.588319 0.10749,0.883149 0.0855,-0.45407 0.16898,-0.909506 0.16898,-1.383377 0,4.967687 4.86755,8.994797 11.04325,8.994797 4.47372,0 8.23206,-2.12731 9.97975,-5.18056 0.49604,-1.02758 0.78704,-2.14087 0.78704,-3.314009 0,0.302504 0.0722,0.588319 0.10748,0.883149 0.0855,-0.45407 0.16898,-0.909506 0.16898,-1.383377 0,4.967687 4.86807,8.994797 11.04377,8.994797 4.47452,0 8.23351,-2.128 9.98079,-5.18211 0.49558,-1.02717 0.786,-2.13989 0.786,-3.312459 0,0.302504 0.0722,0.588319 0.10749,0.883149 0.0855,-0.45407 0.16898,-0.909506 0.16898,-1.383377 0,4.967687 4.86804,8.994797 11.04377,8.994797 4.47451,0 8.23351,-2.128 9.98078,-5.18211 0.49558,-1.02717 0.786,-2.13989 0.786,-3.312459 0,0.302504 0.0722,0.588319 0.10749,0.883149 0.0855,-0.45407 0.16898,-0.909506 0.16898,-1.383377 -1e-5,4.967687 4.86806,8.994797 11.04377,8.994797 4.47451,0 8.23351,-2.128 9.98079,-5.18211 0.49558,-1.02717 0.786,-2.13989 0.786,-3.312459 0,0.302504 0.0722,0.588319 0.10748,0.883149 0.0855,-0.45407 0.16899,-0.909506 0.16899,-1.383377 -1e-5,4.967687 4.86754,8.994797 11.04325,8.994797 4.47451,0 8.23387,-2.128 9.9813,-5.18211 0.49558,-1.02717 0.786,-2.13989 0.786,-3.312459 0,0.302504 0.0722,0.588319 0.10749,0.883149 0.0855,-0.45407 0.16898,-0.909506 0.16898,-1.383377 0,4.967687 4.86754,8.994797 11.04325,8.994797 4.47373,0 8.23244,-2.12731 9.98027,-5.18056 0.49608,-1.02758 0.78703,-2.14087 0.78703,-3.314009 0,0.302504 0.0722,0.588319 0.10749,0.883149 0.0855,-0.45407 0.16898,-0.909506 0.16898,-1.383377 -1e-5,4.967687 4.86753,8.994797 11.04326,8.994797 4.47372,0 8.23243,-2.12731 9.98027,-5.18056 0.49608,-1.02758 0.78703,-2.14087 0.78703,-3.314009 0,0.302504 0.0722,0.588319 0.10748,0.883149 0.0855,-0.45407 0.16899,-0.909506 0.16899,-1.383377 0,4.967687 4.86755,8.994797 11.04325,8.994797 4.47463,0 8.23409,-2.12786 9.9813,-5.18211 0.49558,-1.02713 0.786,-2.13994 0.786,-3.312459 0,0.301632 0.0724,0.586559 0.10749,0.880569 0.0852,-0.45326 0.16846,-0.907819 0.16846,-1.380797 -1e-5,4.967687 4.86806,8.994797 11.04377,8.994797 4.47453,0 8.23351,-2.128 9.98079,-5.18211 0.49558,-1.02717 0.786,-2.13989 0.786,-3.312459 0,0.302504 0.0722,0.588319 0.10749,0.883149 0.0855,-0.45407 0.16898,-0.909506 0.16898,-1.383377 0,4.967687 4.86804,8.994797 11.04377,8.994797 4.4745,0 8.2335,-2.128 9.98078,-5.18211 0.49558,-1.02717 0.786,-2.13989 0.786,-3.312459 0,0.302504 0.0722,0.588319 0.10749,0.883149 0.0855,-0.45407 0.16898,-0.909506 0.16898,-1.383377 -10e-6,4.967687 4.86807,8.994797 11.04377,8.994797 4.47452,0 8.23351,-2.128 9.98079,-5.18211 0.49557,-1.02717 0.786,-2.13989 0.786,-3.312459 0,0.302504 0.0722,0.588319 0.10748,0.883149 0.0855,-0.45407 0.16898,-0.909506 0.16898,-1.383377 0,4.967687 4.86806,8.994797 11.04377,8.994797 4.47452,0 8.23351,-2.128 9.98079,-5.18211 0.49558,-1.02717 0.786,-2.13989 0.786,-3.312459 0,0.302504 0.0722,0.588319 0.10749,0.883149 0.0855,-0.45407 0.16898,-0.909506 0.16898,-1.383377 -2e-5,4.967687 4.86754,8.994797 11.04325,8.994797 4.47451,0 8.23388,-2.128 9.9813,-5.18211 0.49558,-1.02717 0.786,-2.13989 0.786,-3.312459 0,0.302504 0.0722,0.588319 0.10749,0.883149 0.0855,-0.45407 0.16898,-0.909506 0.16898,-1.383377 0,4.967687 4.86755,8.994797 11.04326,8.994797 4.47373,0 8.23243,-2.12731 9.98026,-5.18056 0.49609,-1.02758 0.78704,-2.14087 0.78704,-3.314009 0,0.302504 0.0722,0.588319 0.10748,0.883149 0.0855,-0.45407 0.16899,-0.909506 0.16899,-1.383377 -1e-5,4.967697 4.86753,8.994797 11.04325,8.994797 4.47373,0 8.23243,-2.12731 9.98027,-5.18056 0.49608,-1.02758 0.78703,-2.14087 0.78703,-3.314009 0,0.302504 0.0722,0.588319 0.10749,0.883149 0.0855,-0.45407 0.16898,-0.909506 0.16898,-1.383377 0,4.967687 4.86754,8.994797 11.04325,8.994797 4.47463,0 8.23409,-2.12786 9.98131,-5.18211 0.49557,-1.02713 0.78599,-2.13994 0.78599,-3.312459 0,0.301632 0.0724,0.586559 0.10749,0.880569 0.0852,-0.45326 0.16847,-0.907819 0.16847,-1.380797 0,4.967687 4.86805,8.994797 11.04377,8.994797 4.47451,0 8.2335,-2.128 9.98078,-5.18211 0.49558,-1.02717 0.786,-2.13989 0.786,-3.312459 0,0.302504 0.0722,0.588319 0.10749,0.883149 0.0855,-0.45407 0.16898,-0.909506 0.16898,-1.383377 v -5.997318 z"
         sodipodi:nodetypes="cssccccsccccsccccsccccsccccsccccsccccsccccsccccsccccsccccsccccsccccsccccsccccsccccsccccsccccsccccsccccsccccscccscc" />
    </g>
  </g>
</svg>
